<?xml version="1.0" encoding="utf-8"?>
<!-- Generator: Adobe Illustrator 23.0.2, SVG Export Plug-In . SVG Version: 6.00 Build 0)  -->
<svg version="1.1" id="Layer_1" xmlns="http://www.w3.org/2000/svg" xmlns:xlink="http://www.w3.org/1999/xlink" x="0px" y="0px"
	 viewBox="0 0 400 400" style="enable-background:new 0 0 400 400;" xml:space="preserve">
<style type="text/css">
	.st0{fill-rule:evenodd;clip-rule:evenodd;fill:#3599A5;}
	.st1{fill-rule:evenodd;clip-rule:evenodd;fill:#6FCDD6;}
	.st2{fill-rule:evenodd;clip-rule:evenodd;fill:#2574A9;}
	.st3{fill-rule:evenodd;clip-rule:evenodd;fill:#16AEDB;}
</style>
<path class="st0" d="M108.8,186.4l72.7,49c6.8,4.6,10.9,12.3,10.9,20.5v19.4c0,19.9-22.2,31.6-38.6,20.4l-72.7-49.5
	c-6.8-4.6-10.8-12.3-10.8-20.4v-18.8C70.2,187.1,92.4,175.4,108.8,186.4z"/>
<path class="st1" d="M108.8,213.5l72.7-49c6.8-4.6,10.9-12.3,10.9-20.5v-19.4c0-19.9-22.2-31.6-38.6-20.4l-72.7,49.5
	c-6.8,4.6-10.8,12.3-10.8,20.4v32.8v18.8c0,8.2,4,15.8,10.8,20.4l28.2,19.4c0,0-15.8-14.5-15.8-30.2S108.8,213.5,108.8,213.5z"/>
<path class="st2" d="M108.8,186.4l72.7,49c6.8,4.6,10.9,12.3,10.9,20.5v19.4c0,19.9-22.2,31.6-38.6,20.4l-72.7-49.5
	c-6.8-4.6-10.8-12.3-10.8-20.4v-18.8C70.2,187.1,92.4,175.4,108.8,186.4z"/>
<path class="st3" d="M108.8,213.5l72.7-49c6.8-4.6,10.9-12.3,10.9-20.5v-19.4c0-19.9-22.2-31.6-38.6-20.4l-72.7,49.5
	c-6.8,4.6-10.8,12.3-10.8,20.4v32.8v18.8c0,8.2,4,15.8,10.8,20.4l28.2,19.4c0,0-15.8-14.5-15.8-30.2S108.8,213.5,108.8,213.5z"/>
<path class="st0" d="M297.9,213l-72.5-48.8c-6.8-4.6-10.9-12.2-10.9-20.4v-19.3c0-19.8,22.1-31.5,38.5-20.4l72.5,49.3
	c6.7,4.6,10.8,12.2,10.8,20.4v18.8C336.3,212.4,314.3,224.1,297.9,213z"/>
<path class="st1" d="M297.9,186.1l-72.5,48.8c-6.8,4.6-10.9,12.2-10.9,20.4v19.3c0,19.8,22.1,31.5,38.5,20.4l72.5-49.3
	c6.7-4.6,10.8-12.2,10.8-20.4v-32.7v-18.8c0-8.1-4-15.8-10.8-20.4l-28.1-19.3c0,0,15.7,14.4,15.7,30.1S297.9,186.1,297.9,186.1z"/>
<path class="st2" d="M297.9,213l-72.5-48.8c-6.8-4.6-10.9-12.2-10.9-20.4v-19.3c0-19.8,22.1-31.5,38.5-20.4l72.5,49.3
	c6.7,4.6,10.8,12.2,10.8,20.4v18.8C336.3,212.4,314.3,224.1,297.9,213z"/>
<path class="st3" d="M297.9,186.1l-72.5,48.8c-6.8,4.6-10.9,12.2-10.9,20.4v19.3c0,19.8,22.1,31.5,38.5,20.4l72.5-49.3
	c6.7-4.6,10.8-12.2,10.8-20.4v-32.7v-18.8c0-8.1-4-15.8-10.8-20.4l-28.1-19.3c0,0,15.7,14.4,15.7,30.1S297.9,186.1,297.9,186.1z"/>
</svg>
