<?xml version="1.0" encoding="utf-8"?>
<!-- Generator: Adobe Illustrator 23.0.3, SVG Export Plug-In . SVG Version: 6.00 Build 0)  -->
<svg version="1.1" id="Layer_1" xmlns="http://www.w3.org/2000/svg" xmlns:xlink="http://www.w3.org/1999/xlink" x="0px" y="0px"
	 viewBox="0 0 971.4 181.9" style="enable-background:new 0 0 971.4 181.9;" xml:space="preserve">
<style type="text/css">
	.st0{fill:#FFFFFF;}
</style>
<g>
	<path class="st0" d="M172.3,89.8c-5.5,0-10.3,2.8-13.2,7l-41.5-9.7c0.1-1,0.2-2,0.2-3c0-7.2-2.9-13.6-7.5-18.4L117,54l17.6,6.3
		c1,3.3,4.1,5.6,7.7,5.6c4.5,0,8.1-3.6,8.1-8.1c0-4.5-3.6-8.1-8.1-8.1c-2.2,0-4.2,0.9-5.7,2.3l-15.3-5.5l9-15.7
		c1.1,0.2,2.2,0.3,3.3,0.3c8.7,0,15.8-7,15.8-15.6C149.5,7,142.4,0,133.7,0c-8.7,0-15.8,7-15.8,15.6c0,4.5,1.9,8.6,5,11.4
		l-19.4,33.6c-3.6-1.8-7.6-2.8-11.8-2.8c-5.9,0-11.3,1.9-15.7,5.2l-5-5.7l6.9-19.5c3.8-0.7,6.7-4,6.7-8c0-4.5-3.6-8.1-8.1-8.1
		c-4.5,0-8.1,3.6-8.1,8.1c0,1.9,0.6,3.6,1.7,4.9l-5.5,15.3L49.1,32.6c1.6-2.4,2.5-5.3,2.5-8.4c0-8.6-7.1-15.6-15.8-15.6
		c-8.7,0-15.8,7-15.8,15.6c0,8.6,7.1,15.6,15.8,15.6c2.5,0,4.9-0.6,7-1.6l7.8,8.8l-25.4,5.4c-1.5-1.5-3.5-2.4-5.7-2.4
		c-4.5,0-8.1,3.6-8.1,8.1c0,4.5,3.6,8.1,8.1,8.1c3.6,0,6.7-2.4,7.7-5.6L57,54.2l13.2,14.9c-2.9,4.2-4.7,9.4-4.7,14.9
		c0,2.5,0.3,4.9,1,7.1l-37.1,17.7c-2.8-4.5-7.8-7.4-13.5-7.4c-8.7,0-15.8,7-15.8,15.6c0,8.6,7.1,15.6,15.8,15.6s15.8-7,15.8-15.6
		c0,0,0,0,0,0L70,98.8c4,5.9,10.4,10.1,17.8,11.2l0.5,8.7l-19.4,7.9c-1.3-1-3-1.5-4.7-1.5c-4.5,0-8.1,3.6-8.1,8.1s3.6,8.1,8.1,8.1
		c4.1,0,7.4-3,8-6.9l16.6-6.7l1.2,22.7c-5.6,2.4-9.6,7.9-9.6,14.4c0,8.6,7.1,15.6,15.8,15.6c8.7,0,15.8-7,15.8-15.6
		c0-7.9-6-14.5-13.7-15.5l-2.1-39.3c8.5-1.5,15.5-7.1,19.1-14.6l9.1,2.1l1,18.6c-2.1,1.5-3.4,3.9-3.4,6.6c0,4.5,3.6,8.1,8.1,8.1
		c4.5,0,8.1-3.6,8.1-8.1c0-3.1-1.8-5.8-4.4-7.2L133,99.3l23.5,5.5c0,0.2,0,0.4,0,0.6c0,8.6,7.1,15.6,15.8,15.6
		c8.7,0,15.8-7,15.8-15.6C188.1,96.8,181.1,89.8,172.3,89.8z"/>
</g>
<g>
	<path class="st0" d="M228.2,54.7c0.1-0.8,0.3-2.2,0.7-4.3c0.4-2.1,0.9-4.5,1.4-7.1c0.5-2.7,1.1-5.5,1.8-8.5c0.6-3,1.2-5.9,1.9-8.6
		l5.8-25.9h24.3l7.4,31.8c0.5,1.8,0.9,3.8,1.2,5.9c0.4,2.1,0.7,4.1,0.9,6.1c0.3,2,0.5,3.9,0.8,5.8c0.2,1.8,0.4,3.5,0.6,5h0.6
		c0.1-1.3,0.3-3,0.5-5c0.3-2,0.6-4.1,0.9-6.2c0.4-2.1,0.7-4.1,1.1-6.1c0.4-2,0.7-3.6,1-4.8l4-17.5h-6.4v-15H310v15h-6.4l-17.4,65.6
		h-27.7l-7-27.4c-0.2-1-0.5-2.1-0.8-3.4c-0.3-1.3-0.6-2.6-0.8-3.9c-0.2-1.3-0.5-2.6-0.7-3.8c-0.2-1.2-0.4-2.3-0.6-3.2h-0.5
		c-0.2,0.8-0.3,1.9-0.5,3.2c-0.2,1.3-0.4,2.6-0.7,3.9c-0.3,1.3-0.5,2.6-0.8,3.9c-0.3,1.2-0.5,2.3-0.8,3.1l-7.1,27.7H211l-15.4-65.6
		h-6.5v-15h38.6v15h-6.8l3,16.8c0.3,1.4,0.7,3.2,1.1,5.4c0.4,2.2,0.8,4.5,1.1,6.7c0.4,2.3,0.7,4.4,0.9,6.3c0.3,2,0.5,3.4,0.6,4.2
		H228.2z"/>
	<path class="st0" d="M312.1,0.2h70.5v25.5h-20.2V15.4h-18.7v15.9h22.2v15.3h-22.2v18.8h18.7V54.7h20.2v26h-70.5V65.4h7.4v-50h-7.4
		V0.2z"/>
	<path class="st0" d="M388.8,80.7v-15h6.8V15h-6.8V0.2h43.6c9.7,0,16.9,1.7,21.6,5.1c4.7,3.4,7,8.3,7,14.6c0,2.5-0.2,4.6-0.6,6.4
		c-0.4,1.8-1,3.4-1.9,4.8c-0.9,1.4-2,2.7-3.5,3.7c-1.5,1.1-3.3,2-5.5,2.9c2.1,0.6,4.1,1.4,6,2.5s3.5,2.4,4.9,4
		c1.4,1.6,2.5,3.5,3.3,5.7c0.8,2.2,1.2,4.7,1.2,7.4c0,8.1-2.5,14.1-7.4,17.8c-4.9,3.7-13.1,5.6-24.4,5.6H388.8z M419.7,15.4v17.3
		h7.1c3.1,0,5.2-0.8,6.3-2.4c1.1-1.6,1.6-3.7,1.6-6.5c0-2.7-0.7-4.8-2.2-6.2c-1.4-1.5-3.3-2.2-5.6-2.2H419.7z M429.1,65.7
		c2.5,0,4.7-0.9,6.6-2.6c1.9-1.7,2.9-4.2,2.9-7.3c0-2.9-0.8-5.3-2.5-7.3c-1.6-1.9-4.1-2.9-7.4-2.9h-9v20H429.1z"/>
</g>
<g>
	<path class="st0" d="M499.2,80.7V65.4h7.2v-50h-7.2V0.2h35.6c7.1,0,13.4,1,18.9,3.1c5.5,2,10.1,4.8,13.9,8.3
		c3.8,3.5,6.7,7.6,8.6,12.4c2,4.8,3,9.9,3,15.4c0,13.2-3.9,23.4-11.6,30.6c-7.7,7.2-18.8,10.8-33.3,10.8H499.2z M552.4,39.4
		c0-3.1-0.3-6-1-8.9c-0.7-2.9-1.7-5.4-3.1-7.7c-1.4-2.2-3.2-4-5.4-5.4c-2.2-1.3-4.9-2-8-2h-4.4v50h4.4c3.1,0,5.8-0.7,8-2.1
		c2.2-1.4,4-3.2,5.4-5.6c1.4-2.3,2.4-5.1,3.1-8.2C552,46.3,552.4,43,552.4,39.4z"/>
	<path class="st0" d="M583.6,0.2H654v25.5h-20.2V15.4h-18.7v15.9h22.2v15.3h-22.2v18.8h18.7V54.7H654v26h-70.5V65.4h7.4v-50h-7.4
		V0.2z"/>
	<path class="st0" d="M706.8,54.9c0.2-1.6,0.6-3.7,1.3-6.3c0.7-2.6,1.7-5.4,2.9-8.3l10.6-25.1h-6.1v-15h33.1v15h-5.7l-28,65.6h-21.5
		l-31-65.6H656v-15h43.1v15h-6.4l9.9,25.8c0.9,2.8,1.7,5.5,2.4,7.9c0.7,2.4,1.1,4.4,1.2,6H706.8z"/>
</g>
<g>
	<path class="st0" d="M281.7,180.1h-47v-15.3h11.1l-2.5-8h-24l-2.5,8h9.1v15.3h-37.2v-15.3h8l15.8-51.3h-4.8V98.3h45l20.7,66.4h8.2
		V180.1z M223.7,142.8h15.3l-7.7-25.3L223.7,142.8z"/>
	<path class="st0" d="M286.3,98.3h37.9c6.8,0,12.3,0.7,16.5,2c4.2,1.4,7.5,3.2,9.8,5.5c2.3,2.3,3.9,5,4.7,8c0.8,3,1.2,6.2,1.2,9.5
		c0,3.9-0.8,7.3-2.5,10.2c-1.6,2.9-3.9,5.3-6.7,7.2c-2.8,1.9-6.1,3.4-9.8,4.3c-3.7,1-7.7,1.5-11.9,1.5h-8.9v18.1h7.1v15.4h-37.7
		v-15.4h6.6v-51h-6.6V98.3z M316.8,113.5v20.3h5.3c3.4,0,6.2-0.8,8.3-2.5c2.1-1.7,3.2-4.1,3.2-7.2c0-3.5-1-6.2-2.9-8
		c-1.9-1.8-4.6-2.7-8-2.7H316.8z"/>
	<path class="st0" d="M361.1,98.3h37.9c6.8,0,12.3,0.7,16.5,2c4.2,1.4,7.5,3.2,9.8,5.5c2.3,2.3,3.9,5,4.7,8c0.8,3,1.2,6.2,1.2,9.5
		c0,3.9-0.8,7.3-2.5,10.2c-1.6,2.9-3.9,5.3-6.7,7.2c-2.8,1.9-6.1,3.4-9.8,4.3c-3.7,1-7.7,1.5-11.9,1.5h-8.9v18.1h7.1v15.4h-37.7
		v-15.4h6.6v-51h-6.6V98.3z M391.7,113.5v20.3h5.3c3.4,0,6.2-0.8,8.3-2.5c2.1-1.7,3.2-4.1,3.2-7.2c0-3.5-1-6.2-2.9-8
		c-1.9-1.8-4.6-2.7-8-2.7H391.7z"/>
	<path class="st0" d="M436,98.3H474c6.8,0,12.3,0.6,16.5,1.9c4.2,1.2,7.5,3,9.9,5.1c2.4,2.2,4,4.7,4.8,7.7c0.8,2.9,1.2,6.1,1.2,9.4
		c0,2.3-0.4,4.4-1.3,6.3c-0.9,1.9-2,3.6-3.6,5.1c-1.5,1.4-3.3,2.7-5.4,3.6c-2.1,1-4.3,1.6-6.7,1.9c2,0.3,4,1,5.8,1.9
		c1.8,1,3.5,2.2,4.9,3.7c1.4,1.5,2.5,3.2,3.4,5c0.9,1.9,1.3,3.9,1.3,6c0,2.5,0.2,4.4,0.6,5.8c0.4,1.4,1.1,2.1,2.2,2.1
		c1.8,0,2.7-1.2,2.7-3.7v-3.9h7.8v6.4c0,2.4-0.3,4.8-0.8,7c-0.5,2.3-1.5,4.2-2.8,6c-1.3,1.7-3.1,3.1-5.3,4.2
		c-2.2,1.1-4.9,1.6-8.2,1.6c-7.7,0-13.5-1.9-17.2-5.7c-3.7-3.8-5.6-9.2-5.6-16c0-2.6-0.1-4.8-0.4-6.5c-0.2-1.7-0.8-3.1-1.6-4
		c-0.8-1-2-1.7-3.6-2c-1.6-0.4-3.6-0.6-6.2-0.6v18.1h7.1v15.4H436v-15.4h6.6v-51H436V98.3z M466.6,113.5v19.9h5.3
		c3.4,0,6.2-0.8,8.2-2.4c2-1.6,3-4,3-7.1c0-3.5-0.9-6.1-2.8-7.8c-1.8-1.7-4.5-2.6-7.9-2.6H466.6z"/>
	<path class="st0" d="M522.2,98.3h70.6v25.8h-20.3v-10.4h-18.7v16.1H576v15.6h-22.3v19.1h18.7v-10.9h20.3v26.4h-70.6v-15.6h7.4
		v-50.7h-7.4V98.3z"/>
	<path class="st0" d="M688.2,113.4h-7.7v66.6h-25.2l-29.9-44.5V165h9v15.1h-36V165h6.9v-51.6h-6.8V98.3h33.6l28.8,42.9v-27.8H653
		V98.3h35.3V113.4z"/>
	<path class="st0" d="M771.4,98.3v30.4h-17.2v-15h-9.8v50.7h9.7v15.6h-43.6v-15.6h9.6v-50.7H710v15h-17.2V98.3H771.4z"/>
	<path class="st0" d="M776,98.3h38.9v15.4h-7.3v50.7h7.3v15.6H776v-15.6h7.4v-50.7H776V98.3z"/>
	<path class="st0" d="M896.2,165.5c-2,2.2-4.3,4.3-6.8,6.3c-2.5,2-5.2,3.7-8.2,5.3c-3,1.5-6.2,2.7-9.6,3.6
		c-3.4,0.9-7.1,1.3-10.9,1.3c-6.2,0-11.9-1-17-2.9c-5.1-1.9-9.4-4.7-13-8.3c-3.6-3.6-6.4-8-8.4-13.2c-2-5.2-3-11-3-17.6
		c0-6.7,1.1-12.7,3.4-18.1c2.3-5.3,5.2-9.9,8.7-13.6c3.5-3.7,7.4-6.5,11.5-8.5c4.2-1.9,8.2-2.9,12-2.9c2.9,0,5.4,0.4,7.6,1.1
		c2.1,0.7,4,1.5,5.4,2.4c1.5,0.9,2.6,1.8,3.5,2.7c0.8,0.9,1.3,1.5,1.6,1.8l2.7-6.5h18.4v33.2h-21c-0.1-1.9-0.4-3.7-0.9-5.5
		c-0.5-1.8-1.3-3.4-2.3-4.7c-1-1.4-2.2-2.5-3.7-3.3c-1.5-0.8-3.3-1.2-5.4-1.2c-2.1,0-4,0.6-5.7,1.8c-1.7,1.2-3.2,2.9-4.4,5
		c-1.2,2.1-2.1,4.6-2.8,7.4c-0.7,2.8-1,5.8-1,9c0,2.9,0.4,5.7,1.1,8.3c0.7,2.7,1.8,5,3.3,7c1.4,2,3.2,3.6,5.3,4.9
		c2.1,1.2,4.6,1.8,7.4,1.8c2.4,0,4.7-0.5,6.9-1.6c2.2-1.1,4.1-2.3,5.7-3.7c1.6-1.4,3-2.6,4-3.9c1.1-1.2,1.7-2,1.9-2.3L896.2,165.5z"
		/>
	<path class="st0" d="M900.8,98.3h70.6v25.8h-20.3v-10.4h-18.7v16.1h22.3v15.6h-22.3v19.1h18.7v-10.9h20.3v26.4h-70.6v-15.6h7.4
		v-50.7h-7.4V98.3z"/>
</g>
</svg>
