<?xml version="1.0" standalone="no"?>
<!DOCTYPE svg PUBLIC "-//W3C//DTD SVG 20010904//EN"
 "http://www.w3.org/TR/2001/REC-SVG-20010904/DTD/svg10.dtd">
<svg version="1.0" xmlns="http://www.w3.org/2000/svg"
 width="700.000000pt" height="700.000000pt" viewBox="0 0 700.000000 700.000000"
 preserveAspectRatio="xMidYMid meet">
<metadata>
Created by potrace 1.11, written by Peter Selinger 2001-2013
</metadata>
<g transform="translate(0.000000,700.000000) scale(0.100000,-0.100000)"
fill="#000000" stroke="none">
<path d="M2884 5249 c-28 -3 -69 -12 -90 -19 -35 -11 -228 -136 -624 -406 -80
-54 -255 -173 -388 -264 -451 -306 -474 -325 -525 -450 -22 -54 -22 -62 -25
-590 -3 -515 -2 -537 18 -602 13 -43 37 -89 68 -130 51 -67 63 -76 562 -413
236 -159 370 -251 700 -476 197 -136 248 -155 384 -147 192 12 353 150 395
337 5 24 10 141 11 260 1 236 -8 293 -57 383 -43 79 -98 125 -355 298 -134 90
-304 205 -378 255 -74 50 -177 120 -228 154 l-93 62 48 33 c42 28 290 195 764
514 189 128 244 190 283 321 13 45 16 98 14 300 -3 240 -4 247 -29 309 -79
186 -263 296 -455 271z"/>
<path d="M4068 5236 c-153 -45 -263 -157 -303 -311 -22 -87 -21 -464 1 -543
26 -89 62 -151 118 -204 28 -27 173 -130 321 -230 149 -99 357 -239 463 -310
l194 -130 -79 -52 c-179 -118 -856 -576 -884 -599 -35 -28 -99 -121 -120 -174
-21 -53 -23 -77 -27 -283 -5 -316 15 -397 126 -508 134 -134 332 -168 495 -86
44 23 133 82 612 409 133 91 242 165 542 368 203 139 275 202 315 280 42 83
46 142 47 648 1 524 -3 567 -56 658 -58 99 -94 126 -763 576 -162 109 -315
213 -340 230 -179 125 -354 237 -391 251 -96 34 -175 37 -271 10z"/>
</g>
</svg>
